<svg xmlns="http://www.w3.org/2000/svg" width="20" height="21" viewBox="0 0 20 21">
  <g fill="none">
    <path fill="#FF2BC2" d="M14.525,8.82179487 C14.4,8.75897436 14.2416667,8.73205128 14.0416667,8.73205128 C12.9916667,8.73205128 12.2916667,9.6025641 12.2916667,11.0474359 C12.2916667,12.6987179 13.0083333,13.3628205 13.9416667,13.3628205 C14.1416667,13.3628205 14.3583333,13.3358974 14.5166667,13.2641026 L14.5166667,8.82179487 L14.525,8.82179487 Z M10.7916667,11.1192308 C10.7916667,9.02820513 12.0416667,7.39487179 14.0916667,7.39487179 C14.2666667,7.39487179 14.3583333,7.39487179 14.525,7.41282051 L14.525,5.07948718 C14.525,5.02564103 14.5666667,4.98974359 14.6083333,4.98974359 L15.95,4.98974359 C16.0166667,4.98974359 16.0333333,5.01666667 16.0333333,5.06153846 L16.0333333,13.2641026 C16.0333333,13.5064103 16.0333333,13.8115385 16.075,14.1435897 C16.075,14.2064103 16.075,14.2153846 16.025,14.2423077 C15.325,14.6012821 14.5916667,14.7628205 13.8916667,14.7628205 C12.0833333,14.7628205 10.7916667,13.5602564 10.7916667,11.1192308 Z M7.95,9.66538462 L10.2833333,14.5384615 C10.325,14.6102564 10.3,14.6820513 10.2333333,14.6820513 L8.78333333,14.6820513 C8.69166667,14.6820513 8.65,14.6551282 8.60833333,14.5653846 C8.075,13.3807692 7.53333333,12.1512821 6.975,10.8769231 L6.95833333,10.8769231 C6.45833333,12.0794872 5.90833333,13.3897436 5.375,14.574359 C5.33333333,14.6461538 5.29166667,14.6730769 5.225,14.6730769 L3.84166667,14.6730769 C3.75833333,14.6730769 3.75,14.6012821 3.79166667,14.5474359 L6.075,9.81794872 L3.86666667,5.11538462 C3.81666667,5.04358974 3.86666667,4.98076923 3.925,4.98076923 L5.35833333,4.98076923 C5.44166667,4.98076923 5.48333333,4.99871795 5.50833333,5.07948718 C6.03333333,6.27307692 6.56666667,7.44871795 7.06666667,8.65128205 L7.08333333,8.65128205 C7.56666667,7.46666667 8.1,6.27307692 8.60833333,5.0974359 C8.65,5.02564103 8.675,4.98076923 8.75833333,4.98076923 L10.1,4.98076923 C10.1666667,4.98076923 10.1916667,5.03461538 10.15,5.11538462 L7.95,9.66538462 Z"/>
    <rect width="19.917" height="20.955" fill="#FFF"/>
    <g fill="red">
      <polygon points="12.592 .009 19.992 19.071 19.992 .009"/>
      <polygon points="0 .009 0 19.071 7.4 .009"/>
      <polygon points="10.008 7.027 14.725 19.071 11.633 19.071 10.225 15.229 6.767 15.229"/>
    </g>
  </g>
</svg>
